<svg xmlns="http://www.w3.org/2000/svg" viewBox="0 0 800 800" preserveAspectRatio="xMidYMid slice">
  <defs>
    <linearGradient id="gpuBg" x1="0" y1="0" x2="1" y2="1">
      <stop offset="0%" stop-color="#0a0c0a"/>
      <stop offset="100%" stop-color="#101410"/>
    </linearGradient>
  </defs>
  <rect width="800" height="800" fill="url(#gpuBg)"/>
  <g transform="translate(140,260)">
    <rect width="520" height="200" rx="10" fill="#121412" stroke="#2a302a" stroke-width="2"/>
    <rect x="30" y="30" width="160" height="140" rx="6" fill="#0b0d0b" stroke="#39ff14" stroke-width="1.5"/>
    <g stroke="#39ff14" stroke-width="1" opacity="0.5">
      <line x1="60" y1="60" x2="160" y2="60"/>
      <line x1="60" y1="90" x2="160" y2="90"/>
      <line x1="60" y1="120" x2="160" y2="120"/>
      <line x1="60" y1="150" x2="160" y2="150"/>
    </g>
    <g transform="translate(220,30)">
      <circle cx="60" cy="70" r="55" fill="#0b0d0b" stroke="#39ff14" stroke-width="2"/>
      <circle cx="60" cy="70" r="40" fill="none" stroke="#39ff14" stroke-width="1" opacity="0.6"/>
      <g stroke="#39ff14" stroke-width="1.4" opacity="0.7">
        <line x1="60" y1="20" x2="60" y2="120"/>
        <line x1="10" y1="70" x2="110" y2="70"/>
        <line x1="25" y1="35" x2="95" y2="105"/>
        <line x1="95" y1="35" x2="25" y2="105"/>
      </g>
    </g>
    <g stroke="#ff8a3d" stroke-width="1" opacity="0.6">
      <line x1="420" y1="30" x2="420" y2="170"/>
      <line x1="450" y1="30" x2="450" y2="170"/>
      <line x1="480" y1="30" x2="480" y2="170"/>
    </g>
  </g>
  <text x="400" y="730" text-anchor="middle" font-family="JetBrains Mono, monospace" font-size="22" fill="#39ff14" opacity="0.7">GPU // COMPUTE CLUSTER</text>
</svg>
